{"title":"The Night Manager S01E02 x264 RB58.mp4","uid":13707216,"size":629131675,"categoryP":"video","categoryS":"tv_shows","magnet":"?xt=urn:btih:ad0c9b771dcc5d30506b9977d0412ba114872cc7&amp;dn=The+Night+Manager+S01E02+x264+RB58.mp4&amp;tr=udp%3A%2F%2Ftracker.leechers-paradise.org%3A6969&amp;tr=udp%3A%2F%2Fzer0day.ch%3A1337&amp;tr=udp%3A%2F%2Fopen.demonii.com%3A1337&amp;tr=udp%3A%2F%2Ftracker.coppersurfer.tk%3A6969&amp;tr=udp%3A%2F%2Fexodus.desync.com%3A6969","seeders":1,"leechers":0,"uploader":"RedBaron58","files":1,"time":1456838299,"description":"The Night Manager S01E02 x264 mp4\r\n \nhttp://www.imdb.com/title/tt1399664/\r\n\r\nTrailer:\r\n\r\n\r\nPlease be patient My intial upload speed is limited.\r\nThank you for your kind comments and feedback on my other torrents, your feedback is welcome.\r\n\r\n\r\nAbout the Episode:\r\nPine and Burr hatch a plan to get Roper's attention by setting up a series of faked \r\ncriminal activities, including stealing from a hotel and conducting drug deals in Devon. \r\nTheir intention is for Pine to develop a reputation in the underworld, which could give him \r\nthe chance to infiltrate the arms dealer's inner circle. \r\nSix months later, Roper's son is kidnapped by two thieves from his villa in Mallorca, \r\nbut the abduction is not what it seems, nor is the mysterious figure lurking in the shadows.\r\n\r\n\r\nI hope you enjoy.\r\n\r\n\r\nTechnical:\r\n\r\nGeneral\r\nComplete name                            : G:The Night Manager S01E02 x264 RB58.mp4\r\nFormat                                   : MPEG-4\r\nFormat profile                           : Base Media\r\nCodec ID                                 : isom\r\nFile size                                : 600 MiB\r\nDuration                                 : 55mn 4s\r\nOverall bit rate                         : 1 523 Kbps\r\nWriting application                      : Lavf54.63.104\r\n\r\nVideo\r\nID                                       : 1\r\nFormat                                   : AVC\r\nFormat/Info                              : Advanced Video Codec\r\nFormat profile                           :   \r\nFormat settings, CABAC                   : Yes\r\nFormat settings, ReFrames                : 4 frames\r\nCodec ID                                 : avc1\r\nCodec ID/Info                            : Advanced Video Coding\r\nDuration                                 : 55mn 4s\r\nBit rate                                 : 1 400 Kbps\r\nWidth                                    : 832 pixels\r\nHeight                                   : 468 pixels\r\nDisplay aspect ratio                     : 16:9\r\nFrame rate mode                          : Constant\r\nFrame rate                               : 25.000 fps\r\nColor space                              : YUV\r\nChroma subsampling                       : 4:2:0\r\nBit depth                                : 8 bits\r\nScan type                                : Progressive\r\nBits/(Pixel*Frame)                       : 0.144\r\nStream size                              : 552 MiB (92%)\r\nWriting library                          : x264 core 123 r2189 35cf912\r\nEncoding settings                        : cabac=1 / ref=3 / deblock=1:0:0\r\n\r\nAudio\r\nID                                       : 2\r\nFormat                                   : AAC\r\nFormat/Info                              : Advanced Audio Codec\r\nFormat profile                           : LC\r\nCodec ID                                 : 40\r\nDuration                                 : 55mn 4s\r\nBit rate mode                            : Constant\r\nBit rate                                 : 114 Kbps\r\nChannel(s)                               : 2 channels\r\nChannel positions                        : Front: L R\r\nSampling rate                            : 48.0 KHz\r\nCompression mode                         : Lossy\r\nStream size                              : 45.1 MiB (8%)","torrent":{"xt":"urn:btih:ad0c9b771dcc5d30506b9977d0412ba114872cc7","amp;dn":"The+Night+Manager+S01E02+x264+RB58.mp4","amp;tr":["udp%3A%2F%2Ftracker.leechers-paradise.org%3A6969","udp%3A%2F%2Fzer0day.ch%3A1337","udp%3A%2F%2Fopen.demonii.com%3A1337","udp%3A%2F%2Ftracker.coppersurfer.tk%3A6969","udp%3A%2F%2Fexodus.desync.com%3A6969"],"infoHash":"ad0c9b771dcc5d30506b9977d0412ba114872cc7","infoHashBuffer":{"type":"Buffer","data":[173,12,155,119,29,204,93,48,80,107,153,119,208,65,43,161,20,135,44,199]},"announce":[],"urlList":[]}}